<?xml version="1.0" encoding="UTF-8"?>
<svg id="Layer_1" xmlns="http://www.w3.org/2000/svg" version="1.1" viewBox="0 0 694 653">
  <!-- Generator: Adobe Illustrator 29.4.0, SVG Export Plug-In . SVG Version: 2.1.0 Build 152)  -->
  <defs>
    <style>
      .st0 {
        fill: #35f0ed;
      }
    </style>
  </defs>
  <path class="st0" d="M547.621582,125.878418c-53.5878906-53.5883789-124.8369141-83.1005859-200.621582-83.1005859-75.7851562,0-147.0336914,29.512207-200.6220703,83.1005859-53.5878906,53.5878906-83.1000977,124.8369141-83.1000977,200.6220703s29.512207,147.0332031,83.1000977,200.6210938c53.5883789,53.5878906,124.8374023,83.1005859,200.6220703,83.1005859s147.0336914-29.5126953,200.621582-83.1005859,83.1005859-124.8359375,83.1005859-200.6210938-29.5126953-147.0341797-83.1005859-200.6220703ZM347,599.222168c-150.3793945,0-272.722168-122.3427734-272.722168-272.7216797,0-150.3798828,122.3427734-272.7226562,272.722168-272.7226562s272.722168,122.3427734,272.722168,272.7226562c0,150.3789062-122.3427734,272.7216797-272.722168,272.7216797Z"/>
  <path class="st0" d="M296.6113281,326.5004883c0,27.7841797,22.6044922,50.3886719,50.3886719,50.3886719,27.784668,0,50.3891602-22.6044922,50.3891602-50.3886719,0-27.784668-22.6044922-50.3891602-50.3891602-50.3891602-27.7841797,0-50.3886719,22.6044922-50.3886719,50.3891602ZM386.3891602,326.5004883c0,21.71875-17.6699219,39.3886719-39.3891602,39.3886719-21.71875,0-39.3886719-17.6699219-39.3886719-39.3886719,0-21.7192383,17.6699219-39.3891602,39.3886719-39.3891602,21.7192383,0,39.3891602,17.6699219,39.3891602,39.3891602Z"/>
  <path class="st0" d="M339,230.315979c-20.6114502,1.6992798-39.4044189,9.902771-54.3224487,22.5481567l-24.0393677-24.0389404-11.3134766,11.3134766,24.0393066,24.0389404c-12.6455688,14.9180908-20.8491821,33.7112427-22.5485229,54.322876h-42.0376587v16h42.0376587c1.6992798,20.6113892,9.9026489,39.40448,22.5480957,54.3224487l-24.0388794,24.0388794,11.3134766,11.3144531,24.0393677-24.0393677c14.9179688,12.6454468,33.7110596,20.8488159,54.3224487,22.5480957v42.0371704h16v-42.0371704c20.6115112-1.6993408,39.4046631-9.9026489,54.3226318-22.5479126l24.0391846,24.0391846,11.3144531-11.3144531-24.0391846-24.0391846c12.6452637-14.9178467,20.8486328-33.7108765,22.5479126-54.3221436h42.0371704v-16h-42.0371704c-1.6993408-20.6115112-9.902832-39.4046021-22.5483398-54.3226318l24.0396118-24.0391846-11.3144531-11.3134766-24.0391235,24.0387573c-14.9180298-12.6452637-33.7111816-20.8486328-54.3226929-22.5479736v-42.038147h-16v42.038147ZM425.519043,326.5004883c0,43.2949219-35.2236328,78.5185547-78.519043,78.5185547s-78.5185547-35.2236328-78.5185547-78.5185547c0-43.2954102,35.2231445-78.5185547,78.5185547-78.5185547s78.519043,35.2231445,78.519043,78.5185547Z"/>
  <path class="st0" d="M347,553.4077148c-120.0760498,0-218.6491699-93.7574463-226.3989868-211.9072266h-11.0281982c3.5791016,57.90271,27.8210449,111.845459,69.2015991,153.2255859,44.9345703,44.9345703,104.6782227,69.6816406,168.2255859,69.6816406,61.7299805,0,120.2397461-23.5380859,164.7524414-66.2783203,41.461853-39.8104858,66.7879639-92.3936157,72.1011963-149.1477051h-11.0524292c-11.2867432,115.6051636-108.1515503,204.4260254-225.8012085,204.4260254Z"/>
  <path class="st0" d="M515.2260742,158.2744141c-44.9345703-44.9350586-104.6787109-69.6816406-168.2260742-69.6816406s-123.2910156,24.746582-168.2255859,69.6816406c-41.3806152,41.380127-65.6224976,95.322937-69.2015991,153.2260742h11.0281982c7.7498169-118.1498413,106.322937-211.9077148,226.3989868-211.9077148,123.2768555,0,223.9086914,98.8237305,226.8422852,221.4077148h-24.0644531v11h35.1298828v-5.5c0-63.5473633-24.7470703-123.2915039-69.6816406-168.2260742Z"/>
  <path class="st0" d="M159.1298828,326.5004883c0,101.7516479,81.312561,184.8627319,182.3701172,187.7835693v-11.0072632c-94.9907837-2.9172363-171.3701172-81.0906982-171.3701172-176.7763062,0-95.6860962,76.3793335-173.8595581,171.3701172-176.7767944v-11.0072632c-101.0575562,2.9208374-182.3701172,86.0319214-182.3701172,187.7840576Z"/>
  <path class="st0" d="M523.8706055,326.5004883c0,95.6856689-76.3791504,173.8591309-171.3706055,176.7763672v11.0072021c101.0580444-2.9208374,182.3706055-86.0319214,182.3706055-187.7835693,0-101.7521362-81.312561-184.8632202-182.3706055-187.7840576v11.0072021c94.9914551,2.9172363,171.3706055,81.0906982,171.3706055,176.7768555Z"/>
</svg>